<mxfile host="Electron" agent="Mozilla/5.0 (Windows NT 10.0; Win64; x64) AppleWebKit/537.36 (KHTML, like Gecko) draw.io/26.0.3 Chrome/130.0.6723.137 Electron/33.2.1 Safari/537.36" version="26.0.3">
  <diagram name="Page-1" id="zOEEpCLVx3BSE4MT3N1Z">
    <mxGraphModel dx="1643" dy="397" grid="1" gridSize="10" guides="1" tooltips="1" connect="1" arrows="1" fold="1" page="1" pageScale="1" pageWidth="827" pageHeight="1169" math="0" shadow="0">
      <root>
        <mxCell id="0" />
        <mxCell id="1" parent="0" />
        <mxCell id="aIXyQGII8kEUBv0DiSkg-55" value="" style="shape=umlLifeline;perimeter=lifelinePerimeter;whiteSpace=wrap;html=1;container=1;dropTarget=0;collapsible=0;recursiveResize=0;outlineConnect=0;portConstraint=eastwest;newEdgeStyle={&quot;curved&quot;:0,&quot;rounded&quot;:0};participant=umlActor;" parent="1" vertex="1">
          <mxGeometry x="-780" y="80" width="20" height="490" as="geometry" />
        </mxCell>
        <mxCell id="aIXyQGII8kEUBv0DiSkg-56" value="" style="html=1;points=[[0,0,0,0,5],[0,1,0,0,-5],[1,0,0,0,5],[1,1,0,0,-5]];perimeter=orthogonalPerimeter;outlineConnect=0;targetShapes=umlLifeline;portConstraint=eastwest;newEdgeStyle={&quot;curved&quot;:0,&quot;rounded&quot;:0};" parent="aIXyQGII8kEUBv0DiSkg-55" vertex="1">
          <mxGeometry x="5" y="50" width="10" height="360" as="geometry" />
        </mxCell>
        <mxCell id="aIXyQGII8kEUBv0DiSkg-57" value="Gestore del Catalogo" style="text;html=1;align=center;verticalAlign=middle;whiteSpace=wrap;rounded=0;" parent="1" vertex="1">
          <mxGeometry x="-800" y="40" width="60" height="30" as="geometry" />
        </mxCell>
        <mxCell id="aIXyQGII8kEUBv0DiSkg-58" value="clickOnAddFilm()" style="html=1;verticalAlign=bottom;endArrow=block;curved=0;rounded=0;exitX=0.8;exitY=0.166;exitDx=0;exitDy=0;exitPerimeter=0;" parent="1" target="aIXyQGII8kEUBv0DiSkg-60" edge="1">
          <mxGeometry width="80" relative="1" as="geometry">
            <mxPoint x="-766" y="189.76" as="sourcePoint" />
            <mxPoint x="-610" y="190" as="targetPoint" />
          </mxGeometry>
        </mxCell>
        <mxCell id="aIXyQGII8kEUBv0DiSkg-59" value=":Catalogo_Boundary" style="shape=umlLifeline;perimeter=lifelinePerimeter;whiteSpace=wrap;html=1;container=1;dropTarget=0;collapsible=0;recursiveResize=0;outlineConnect=0;portConstraint=eastwest;newEdgeStyle={&quot;curved&quot;:0,&quot;rounded&quot;:0};" parent="1" vertex="1">
          <mxGeometry x="-590" y="80" width="160" height="490" as="geometry" />
        </mxCell>
        <mxCell id="aIXyQGII8kEUBv0DiSkg-60" value="" style="html=1;points=[[0,0,0,0,5],[0,1,0,0,-5],[1,0,0,0,5],[1,1,0,0,-5]];perimeter=orthogonalPerimeter;outlineConnect=0;targetShapes=umlLifeline;portConstraint=eastwest;newEdgeStyle={&quot;curved&quot;:0,&quot;rounded&quot;:0};" parent="aIXyQGII8kEUBv0DiSkg-59" vertex="1">
          <mxGeometry x="75" y="85" width="10" height="325" as="geometry" />
        </mxCell>
        <mxCell id="aIXyQGII8kEUBv0DiSkg-61" value="" style="html=1;points=[[0,0,0,0,5],[0,1,0,0,-5],[1,0,0,0,5],[1,1,0,0,-5]];perimeter=orthogonalPerimeter;outlineConnect=0;targetShapes=umlLifeline;portConstraint=eastwest;newEdgeStyle={&quot;curved&quot;:0,&quot;rounded&quot;:0};" parent="aIXyQGII8kEUBv0DiSkg-59" vertex="1">
          <mxGeometry x="80" y="150" width="10" height="130" as="geometry" />
        </mxCell>
        <mxCell id="aIXyQGII8kEUBv0DiSkg-62" value="showForm()" style="html=1;align=left;spacingLeft=2;endArrow=block;rounded=0;edgeStyle=orthogonalEdgeStyle;curved=0;rounded=0;" parent="aIXyQGII8kEUBv0DiSkg-59" target="aIXyQGII8kEUBv0DiSkg-61" edge="1">
          <mxGeometry relative="1" as="geometry">
            <mxPoint x="85" y="130" as="sourcePoint" />
            <Array as="points">
              <mxPoint x="115" y="160" />
            </Array>
          </mxGeometry>
        </mxCell>
        <mxCell id="aIXyQGII8kEUBv0DiSkg-63" value=":Catalogo_Film_Control" style="shape=umlLifeline;perimeter=lifelinePerimeter;whiteSpace=wrap;html=1;container=1;dropTarget=0;collapsible=0;recursiveResize=0;outlineConnect=0;portConstraint=eastwest;newEdgeStyle={&quot;curved&quot;:0,&quot;rounded&quot;:0};" parent="1" vertex="1">
          <mxGeometry x="-420" y="80" width="130" height="420" as="geometry" />
        </mxCell>
        <mxCell id="aIXyQGII8kEUBv0DiSkg-64" value="" style="html=1;points=[[0,0,0,0,5],[0,1,0,0,-5],[1,0,0,0,5],[1,1,0,0,-5]];perimeter=orthogonalPerimeter;outlineConnect=0;targetShapes=umlLifeline;portConstraint=eastwest;newEdgeStyle={&quot;curved&quot;:0,&quot;rounded&quot;:0};" parent="aIXyQGII8kEUBv0DiSkg-63" vertex="1">
          <mxGeometry x="60" y="210" width="10" height="50" as="geometry" />
        </mxCell>
        <mxCell id="aIXyQGII8kEUBv0DiSkg-67" value="fillForm(titolo, descrizione, anno, attori, locandina)" style="html=1;verticalAlign=bottom;endArrow=block;curved=0;rounded=0;" parent="1" target="aIXyQGII8kEUBv0DiSkg-61" edge="1">
          <mxGeometry width="80" relative="1" as="geometry">
            <mxPoint x="-760" y="250" as="sourcePoint" />
            <mxPoint x="-610" y="250" as="targetPoint" />
          </mxGeometry>
        </mxCell>
        <mxCell id="aIXyQGII8kEUBv0DiSkg-68" value="submit" style="html=1;verticalAlign=bottom;endArrow=block;curved=0;rounded=0;exitX=1.46;exitY=0.417;exitDx=0;exitDy=0;exitPerimeter=0;" parent="1" source="aIXyQGII8kEUBv0DiSkg-56" target="aIXyQGII8kEUBv0DiSkg-59" edge="1">
          <mxGeometry width="80" relative="1" as="geometry">
            <mxPoint x="-760" y="280" as="sourcePoint" />
            <mxPoint x="-600.5" y="280" as="targetPoint" />
          </mxGeometry>
        </mxCell>
        <mxCell id="aIXyQGII8kEUBv0DiSkg-70" value="addFilm(dati)" style="html=1;verticalAlign=bottom;endArrow=block;curved=0;rounded=0;" parent="1" source="aIXyQGII8kEUBv0DiSkg-61" target="aIXyQGII8kEUBv0DiSkg-64" edge="1">
          <mxGeometry width="80" relative="1" as="geometry">
            <mxPoint x="-590" y="300" as="sourcePoint" />
            <mxPoint x="-460" y="300" as="targetPoint" />
          </mxGeometry>
        </mxCell>
        <mxCell id="hQAMyrl2ZEOH4pTw3q6v-2" value="showError(error)" style="html=1;verticalAlign=bottom;endArrow=block;curved=0;rounded=0;" edge="1" parent="1" source="aIXyQGII8kEUBv0DiSkg-64" target="aIXyQGII8kEUBv0DiSkg-61">
          <mxGeometry width="80" relative="1" as="geometry">
            <mxPoint x="-470" y="330" as="sourcePoint" />
            <mxPoint x="-390" y="330" as="targetPoint" />
          </mxGeometry>
        </mxCell>
      </root>
    </mxGraphModel>
  </diagram>
</mxfile>
